<?xml version="1.0" encoding="utf-8"?>
<!-- Generator: Adobe Illustrator 23.0.3, SVG Export Plug-In . SVG Version: 6.00 Build 0)  -->
<svg version="1.1" id="Layer_1" xmlns="http://www.w3.org/2000/svg" xmlns:xlink="http://www.w3.org/1999/xlink" x="0px" y="0px"
	 viewBox="0 0 595.28 595.28" style="enable-background:new 0 0 595.28 595.28;" xml:space="preserve">
<style type="text/css">
	.st0{fill:#CE7546;}
	.st1{fill:#FFD200;}
	.st2{fill:#93C841;}
	.st3{fill:#A55422;}
	.st4{fill:#D3BEB4;}
	.st5{fill:#FFC62A;}
	.st6{fill:#FFCD54;}
	.st7{fill:#7CB14E;}
	.st8{fill:#DB6B3F;}
	.st9{fill:#9F6038;}
	.st10{fill:#D69529;}
	.st11{fill:#89A83F;}
	.st12{fill:#8DBC4A;}
	.st13{fill:#9B715D;}
	.st14{fill:#A6CD3C;}
</style>
<g>
	<path class="st10" d="M393.02,98.75c-11.06,0-20.02-8.96-20.02-20.02c0-11.06,8.96-20.02,20.02-20.02
		c11.06,0,20.02,8.96,20.02,20.02C413.03,89.78,404.07,98.75,393.02,98.75z M395.79,53l1.1-7.71h-7.76l1.1,7.71H395.79z
		 M381.95,54.02l-3.89-8.64l-6.46,3.73l5.54,7.69L381.95,54.02z M371.08,62.86L366,58.65l-3.88,6.72l6.19,2.3L371.08,62.86z
		 M367.86,75.95l-8.29-0.91v7.37l8.29-0.91V75.95z M362.11,92.08l3.89,6.73l7.36-5.53l-2.78-4.81L362.11,92.08z M381.95,103.44
		l-4.81-2.78l-4.2,5.09l6.69,3.86L381.95,103.44z M388.7,112.16h8.64l-1.54-7.94h-5.55L388.7,112.16z M413.25,105.66l-4.36-5
		l-4.81,2.78l2.14,6.28L413.25,105.66z M415.13,94.28l6.03,5.97l4.57-7.91l-8.19-2.24L415.13,94.28z M426.45,75.66l-8.33,0.93v4.26
		l8.33,0.93V75.66z M425.73,65.1l-4.56-7.89l-6.22,5.65l2.78,4.81L425.73,65.1z M414.55,49.18l-6.7-3.87l-3.77,8.71l4.81,2.78
		L414.55,49.18z M535.62,396.49l-4.96-1.58c-21.44-6.85-49.35-7.58-71.78-8.16c-26.61-0.69-45.83-1.19-46.63-10.9
		c0-0.01,0-0.01,0-0.02l-2.44-29.63c-25.02,1.99-59.6,9.17-108.5,22.53c-57.62,16.76-101.34,23.44-129.67,23.44
		c-16.64,0-27.96-2.31-33.66-6.23c-3.35-2.31-4.22-4.83-4.36-6.54l-2.37-28.71c-23.05-0.77-44.82-3.64-61.46-8.12l-2.79-0.75
		l1.77-2.28c7.12-9.17,14.44-19.08,21.78-29.49c-9.5-14.57-18.97-29.48-28.16-44.32l-2.74-4.43l4.96,1.59
		c21.43,6.85,49.35,7.57,71.78,8.15c26.61,0.69,45.83,1.18,46.63,10.89c0,0,0,0.01,0,0.01l2.44,29.63
		c25-1.97,59.57-9.15,108.5-22.52c91.45-26.6,147.91-27.81,163.3-17.22c3.35,2.31,4.23,4.83,4.37,6.55l2.37,28.71
		c23.06,0.77,44.83,3.64,61.48,8.12l2.79,0.75l-1.77,2.28c-7.13,9.18-14.45,19.1-21.78,29.49c9.48,14.54,18.95,29.44,28.16,44.32
		L535.62,396.49z M130.93,346.84l-3.58-43.44c-0.01-0.13-0.01-0.26,0.01-0.39c-0.15-6.97,11.11-8.3,24.14-9.82
		c13.28-1.55,28.33-3.3,27.7-10.95c-0.52-6.27-21.1-6.8-42.9-7.36c-21.03-0.54-46.84-1.21-67.98-6.9
		c8.57,13.77,17.36,27.56,26.17,41.06l0.71,1.09l-0.75,1.06c-7.01,9.98-14.02,19.51-20.85,28.39
		C89.46,343.56,109.61,346.11,130.93,346.84z M181.64,311.85l-1.83-22.19c0,0,0,0-0.01,0c-5.53,4.76-17.2,6.12-27.86,7.36
		c-9.38,1.09-21.06,2.45-20.76,6.07l0,0.01C131.61,308,145.45,314.25,181.64,311.85z M428.36,341.56c16.79,0,29.03,2.23,35.15,6.35
		l-0.59-7.11c-0.21-0.07-0.42-0.15-0.61-0.27l-0.13-0.08c-2.25-1.42-4.57-2.81-7.11-3.77c-2.51-1.02-5.14-1.84-7.85-2.37
		c-2.7-0.56-5.47-0.91-8.25-1.04c-2.77-0.12-5.62-0.06-8.34,0.29l-0.06,0.01c-0.47,0.06-0.91-0.25-1.01-0.72
		c-0.11-0.5,0.2-0.99,0.7-1.1c2.91-0.65,5.77-0.99,8.7-1.14c2.92-0.14,5.86-0.05,8.8,0.26c2.94,0.29,5.87,0.89,8.74,1.75
		c2.04,0.56,4.01,1.37,5.95,2.28l-0.39-4.76c-0.21-0.07-0.42-0.15-0.61-0.27l-0.13-0.08c-2.25-1.42-4.57-2.81-7.11-3.77
		c-2.51-1.02-5.14-1.84-7.85-2.37c-2.7-0.56-5.47-0.91-8.25-1.04c-2.77-0.12-5.62-0.06-8.34,0.29l-0.06,0.01
		c-0.47,0.06-0.91-0.25-1.01-0.72c-0.11-0.5,0.2-0.99,0.7-1.1c2.91-0.65,5.77-0.99,8.7-1.14c2.92-0.14,5.86-0.05,8.8,0.26
		c2.94,0.29,5.87,0.89,8.74,1.75c2.04,0.56,4.01,1.37,5.95,2.28l-0.39-4.76c-0.21-0.07-0.42-0.15-0.61-0.27l-0.13-0.08
		c-2.25-1.42-4.57-2.81-7.11-3.77c-2.51-1.02-5.14-1.84-7.85-2.37c-2.7-0.56-5.47-0.91-8.25-1.04c-2.77-0.12-5.62-0.06-8.34,0.29
		l-0.06,0.01c-0.47,0.06-0.91-0.25-1.01-0.72c-0.11-0.5,0.2-0.99,0.7-1.1c2.91-0.65,5.77-0.99,8.7-1.14
		c2.92-0.14,5.86-0.05,8.8,0.26c2.94,0.29,5.87,0.89,8.74,1.75c2.04,0.56,4.01,1.37,5.95,2.28l-0.39-4.76
		c-0.21-0.07-0.42-0.15-0.61-0.27l-0.13-0.08c-2.25-1.42-4.57-2.81-7.11-3.77c-2.51-1.02-5.14-1.84-7.85-2.37
		c-2.7-0.56-5.47-0.91-8.25-1.04c-2.77-0.12-5.62-0.06-8.34,0.29l-0.06,0.01c-0.47,0.06-0.91-0.25-1.01-0.72
		c-0.11-0.5,0.2-0.99,0.7-1.1c2.91-0.65,5.77-0.99,8.7-1.14c2.92-0.14,5.86-0.05,8.8,0.26c2.94,0.29,5.87,0.89,8.74,1.75
		c2.04,0.56,4.01,1.37,5.95,2.28l-0.39-4.76c-0.21-0.07-0.42-0.15-0.61-0.27l-0.13-0.08c-2.25-1.42-4.57-2.81-7.11-3.77
		c-2.51-1.02-5.14-1.84-7.85-2.37c-2.7-0.56-5.47-0.91-8.25-1.04c-2.77-0.12-5.62-0.06-8.34,0.29l-0.06,0.01
		c-0.47,0.06-0.91-0.25-1.01-0.72c-0.11-0.5,0.2-0.99,0.7-1.1c2.91-0.65,5.77-0.99,8.7-1.14c2.92-0.14,5.86-0.05,8.8,0.26
		c2.94,0.29,5.87,0.89,8.74,1.75c2.04,0.56,4.01,1.37,5.95,2.28l-0.39-4.76c-0.21-0.07-0.42-0.15-0.61-0.27l-0.13-0.08
		c-2.25-1.42-4.57-2.81-7.11-3.77c-2.51-1.02-5.14-1.84-7.85-2.37c-2.7-0.56-5.47-0.91-8.25-1.04c-2.77-0.12-5.62-0.06-8.34,0.29
		l-0.06,0.01c-0.47,0.06-0.91-0.25-1.01-0.72c-0.11-0.5,0.2-0.99,0.7-1.1c2.91-0.65,5.77-0.99,8.7-1.14
		c2.92-0.14,5.86-0.05,8.8,0.26c2.94,0.29,5.87,0.89,8.74,1.75c2.04,0.56,4.01,1.37,5.95,2.28l-0.23-2.85
		c-0.1-1.29-1.02-2.53-2.71-3.7c-10.93-7.52-56.93-12.25-160.08,17.76c-50.45,13.78-85.78,21.03-111.16,22.79
		c-25.82,1.9-44.15-0.16-52.1-5.56l0.56,6.79c0.1,0.05,0.21,0.09,0.31,0.15l0.13,0.08c2.25,1.42,4.57,2.81,7.11,3.77
		c2.51,1.02,5.14,1.84,7.85,2.37c2.7,0.56,5.47,0.91,8.25,1.04c2.77,0.12,5.62,0.06,8.34-0.29l0.06-0.01
		c0.47-0.06,0.91,0.25,1.01,0.72c0.11,0.5-0.2,0.99-0.7,1.1c-2.9,0.65-5.77,0.99-8.7,1.14c-2.92,0.14-5.86,0.05-8.8-0.26
		c-2.94-0.29-5.87-0.89-8.74-1.75c-1.94-0.53-3.8-1.29-5.64-2.14l0.39,4.74c0.1,0.05,0.21,0.09,0.31,0.15l0.13,0.08
		c2.25,1.42,4.57,2.81,7.11,3.77c2.51,1.02,5.14,1.84,7.85,2.37c2.7,0.56,5.47,0.91,8.25,1.04c2.77,0.12,5.62,0.06,8.34-0.29
		l0.06-0.01c0.47-0.06,0.91,0.25,1.01,0.72c0.11,0.5-0.2,0.99-0.7,1.1c-2.91,0.65-5.77,0.99-8.7,1.14c-2.92,0.14-5.86,0.05-8.8-0.26
		c-2.94-0.29-5.87-0.89-8.74-1.75c-1.94-0.53-3.8-1.29-5.64-2.14l0.39,4.74c0.1,0.05,0.21,0.09,0.31,0.15l0.13,0.08
		c2.25,1.42,4.57,2.81,7.11,3.77c2.51,1.02,5.14,1.84,7.85,2.37c2.7,0.56,5.47,0.91,8.25,1.04c2.77,0.12,5.62,0.06,8.34-0.29
		l0.06-0.01c0.47-0.06,0.91,0.25,1.01,0.72c0.11,0.5-0.2,0.99-0.7,1.1c-2.91,0.65-5.77,0.99-8.7,1.14c-2.92,0.14-5.86,0.05-8.8-0.26
		c-2.94-0.29-5.87-0.89-8.74-1.75c-1.94-0.53-3.8-1.29-5.64-2.14l0.39,4.74c0.1,0.05,0.21,0.09,0.31,0.15l0.13,0.08
		c2.25,1.42,4.57,2.81,7.11,3.77c2.51,1.02,5.14,1.84,7.85,2.37c2.7,0.56,5.47,0.91,8.25,1.04c2.77,0.12,5.62,0.06,8.34-0.29
		l0.06-0.01c0.47-0.06,0.91,0.25,1.01,0.72c0.11,0.5-0.2,0.99-0.7,1.1c-2.91,0.65-5.77,0.99-8.7,1.14c-2.92,0.14-5.86,0.05-8.8-0.26
		c-2.94-0.29-5.87-0.89-8.74-1.75c-1.94-0.53-3.8-1.29-5.64-2.14l0.39,4.74c0.1,0.05,0.21,0.09,0.31,0.15l0.13,0.08
		c2.25,1.42,4.57,2.81,7.11,3.77c2.51,1.02,5.14,1.84,7.85,2.37c2.7,0.56,5.47,0.91,8.25,1.04c2.77,0.12,5.62,0.06,8.34-0.29
		l0.06-0.01c0.47-0.06,0.91,0.25,1.01,0.72c0.11,0.5-0.2,0.99-0.7,1.1c-2.91,0.65-5.77,0.99-8.7,1.14c-2.92,0.14-5.86,0.05-8.8-0.26
		c-2.94-0.29-5.87-0.89-8.74-1.75c-1.94-0.53-3.8-1.29-5.64-2.14l0.39,4.74c0.1,0.05,0.21,0.09,0.31,0.15l0.13,0.08
		c2.25,1.42,4.57,2.81,7.11,3.77c2.51,1.02,5.14,1.84,7.85,2.37c2.7,0.56,5.47,0.91,8.25,1.04c2.77,0.12,5.62,0.06,8.34-0.29
		l0.06-0.01c0.47-0.06,0.91,0.25,1.01,0.72c0.11,0.5-0.2,0.99-0.7,1.1c-2.91,0.65-5.77,0.99-8.7,1.14c-2.92,0.14-5.86,0.05-8.8-0.26
		c-2.94-0.29-5.87-0.89-8.74-1.75c-1.93-0.53-3.8-1.29-5.64-2.14l0.25,3.03c0.1,1.28,1.02,2.52,2.71,3.69
		c10.93,7.53,56.95,12.26,160.11-17.74c50.43-13.78,85.75-21.03,111.16-22.81C417.48,341.78,423.14,341.56,428.36,341.56z
		 M415.47,368.12c5.52-4.75,17.18-6.11,27.82-7.35c9.39-1.09,21.08-2.45,20.78-6.09c-0.4-4.89-14.22-11.15-50.43-8.76L415.47,368.12
		C415.47,368.12,415.47,368.12,415.47,368.12z M526.96,389.81c-8.59-13.8-17.38-27.59-26.17-41.06l-0.71-1.09l0.75-1.06
		c7-9.96,14-19.5,20.85-28.39c-15.87-3.97-36.03-6.52-57.36-7.25v0l3.58,43.41c0.01,0.13,0.01,0.26-0.01,0.39
		c0.16,6.99-11.11,8.32-24.16,9.84c-13.26,1.54-28.29,3.29-27.66,10.93c0.52,6.27,21.11,6.81,42.9,7.37
		C480.01,383.45,505.81,384.12,526.96,389.81z"/>
	<path class="st9" d="M474.2,461.38c-0.54,3.57-1.32,7.09-2.3,10.56c0.48-0.47,0.92-0.97,1.44-1.4c3.73-3.07,7.82-4.22,11.34-2.89
		c-0.68,5.64-3.62,11.11-7.79,14.05c-3.17,2.25-6.37,2.71-9.11,1.95c-1.46,3.34-3.2,6.55-5.07,9.69c0.6-0.35,1.19-0.73,1.81-1.01
		c4.42-2.01,8.67-2.06,11.72,0.15c-2.14,5.3-6.46,9.87-11.3,11.66c-3.69,1.38-6.94,0.99-9.38-0.48
		c-6.03,7.44-13.31,14.01-21.79,19.27l-2.93-4.72c7.95-4.93,14.79-11.09,20.43-18.07c-1.87-2.06-2.98-4.93-3.25-8.18
		c-0.34-4.4,0.8-8.56,2.96-12.03c3.49,1.22,6.44,4.16,7.14,8.75c0.07,0.44,0.09,0.89,0.11,1.34c1.64-2.8,3.17-5.65,4.47-8.61
		c-2.36-1.48-4.21-3.94-5.34-6.97c-1.52-4.1-1.52-8.37-0.35-12.26c3.69,0.27,7.3,2.32,9.19,6.53c0.19,0.42,0.34,0.86,0.49,1.31
		c0.85-3.12,1.54-6.27,2.02-9.47c-2.66-0.8-5.09-2.69-6.98-5.32c-2.53-3.56-3.65-7.69-3.53-11.77c3.63-0.72,7.66,0.33,10.58,3.91
		c0.32,0.39,0.6,0.8,0.87,1.23c0.02-3.27-0.2-6.55-0.58-9.82c-2.78-0.08-5.63-1.27-8.15-3.34c-3.39-2.81-5.57-6.56-6.59-10.61
		c3.31-1.67,7.48-1.7,11.28,1.05c0.43,0.31,0.84,0.66,1.23,1.02c-0.57-2.1-1.25-4.18-2-6.25c-2.01-2-3.81-4.42-5.22-7.31
		c-2.29-4.71-3.27-9.67-2.84-14.07c4.27,0.99,8.82,4.58,11.41,9.9c1.65,3.36,2.23,6.82,1.96,9.88c0.77,2.17,1.49,4.34,2.08,6.53
		c0.15-0.58,0.26-1.18,0.46-1.75c1.62-4.63,4.52-7.77,8.24-8.41c2.36,5.37,2.62,11.69,0.52,16.38c-1.59,3.58-4.12,5.61-6.86,6.34
		c0.42,3.59,0.64,7.17,0.61,10.75c0.32-0.54,0.59-1.1,0.95-1.62c2.8-3.96,6.44-6.15,10.19-5.8c0.82,5.66-0.59,11.72-3.85,15.65
		C480.02,460.12,477.04,461.4,474.2,461.38z M130.68,500.13c1.87-2.06,2.98-4.93,3.25-8.18c0.35-4.4-0.8-8.56-2.96-12.03
		c-3.49,1.22-6.44,4.16-7.14,8.75c-0.07,0.44-0.09,0.89-0.11,1.34c-1.64-2.8-3.17-5.65-4.47-8.61c2.36-1.48,4.21-3.94,5.34-6.97
		c1.52-4.1,1.52-8.37,0.35-12.26c-3.69,0.27-7.3,2.32-9.19,6.53c-0.19,0.42-0.34,0.86-0.49,1.31c-0.85-3.12-1.54-6.27-2.02-9.48
		c2.66-0.8,5.09-2.69,6.98-5.32c2.53-3.56,3.65-7.69,3.53-11.77c-3.63-0.72-7.66,0.33-10.58,3.91c-0.32,0.39-0.6,0.8-0.87,1.23
		c-0.01-3.27,0.2-6.55,0.58-9.82c2.78-0.08,5.63-1.27,8.15-3.34c3.39-2.81,5.57-6.56,6.59-10.61c-3.31-1.67-7.48-1.7-11.28,1.05
		c-0.43,0.31-0.84,0.66-1.23,1.02c0.57-2.1,1.25-4.18,2-6.25c2.01-2,3.81-4.42,5.22-7.31c2.29-4.71,3.27-9.67,2.84-14.07
		c-4.27,0.99-8.82,4.58-11.41,9.9c-1.65,3.36-2.23,6.82-1.96,9.88c-0.77,2.17-1.49,4.34-2.08,6.53c-0.15-0.58-0.26-1.18-0.46-1.75
		c-1.62-4.63-4.52-7.77-8.24-8.41c-2.36,5.37-2.62,11.69-0.52,16.38c1.59,3.58,4.12,5.61,6.86,6.34c-0.42,3.59-0.64,7.17-0.61,10.75
		c-0.32-0.54-0.59-1.1-0.95-1.62c-2.8-3.96-6.44-6.15-10.19-5.8c-0.82,5.66,0.59,11.72,3.85,15.65c2.47,3,5.45,4.28,8.29,4.25
		c0.54,3.57,1.32,7.09,2.3,10.56c-0.48-0.47-0.92-0.97-1.44-1.4c-3.73-3.07-7.82-4.22-11.34-2.89c0.68,5.64,3.62,11.11,7.79,14.05
		c3.17,2.25,6.37,2.71,9.11,1.95c1.46,3.34,3.2,6.55,5.07,9.69c-0.6-0.35-1.19-0.73-1.81-1.01c-4.42-2.01-8.67-2.06-11.72,0.15
		c2.14,5.3,6.46,9.87,11.3,11.66c3.69,1.38,6.94,0.99,9.38-0.48c6.03,7.44,13.31,14.01,21.79,19.27l2.93-4.72
		C143.16,513.27,136.33,507.12,130.68,500.13z M238.92,352.16c0,1.2,0,2.4,0,3.61c0,6.8-3.6,11.17-10.56,11.81
		c-3.65,0.32-7.3,0.49-10.94,0.49v-44.29c3.5,0,7-0.16,10.5-0.45c7.21-0.65,10.32,2.08,10.31,8.95v1.58c0,4.55-1.4,7.7-4.49,9.55
		C237.47,344.38,238.92,347.46,238.92,352.16z M224.37,341.6c0.91-0.05,1.81-0.11,2.72-0.18c2.59-0.2,4.17-1.53,4.17-5.07v-2.47
		c0-3.17-1.07-4.42-3.54-4.22c-1.12,0.09-2.23,0.17-3.35,0.23V341.6z M231.96,352.66c0-4.12-1.33-5.21-4.49-4.94
		c-1.03,0.08-2.07,0.15-3.1,0.21v13.6c1.33-0.07,2.66-0.17,3.98-0.29c2.34-0.21,3.61-1.44,3.6-4.73V352.66z M246.89,364.81
		c6.33-1.29,12.65-2.91,18.98-4.72v-6.33c-4.01,1.15-8.01,2.21-12.02,3.17c0-4.32,0-8.65,0-12.97c3.18-0.76,6.37-1.59,9.55-2.48
		v-6.33c-3.18,0.89-6.37,1.72-9.55,2.48c0-4.11,0-8.22,0-12.34c4.01-0.96,8.01-2.02,12.02-3.17v-6.33
		c-6.33,1.81-12.65,3.42-18.98,4.72V364.81z M271.95,320.34c2.43-0.74,4.85-1.5,7.28-2.28c0,12.65,0,25.31,0,37.96
		c2.32-0.74,4.64-1.5,6.96-2.27v-37.96c2.43-0.8,4.85-1.61,7.28-2.43v-6.33c-7.17,2.41-14.34,4.8-21.51,6.98
		C271.95,316.12,271.95,318.23,271.95,320.34z M298.27,311.74c2.43-0.82,4.85-1.63,7.28-2.44c0,12.65,0,25.31,0,37.96
		c2.32-0.77,4.64-1.53,6.96-2.28v-37.96c2.42-0.78,4.85-1.55,7.28-2.29c0-2.11,0-4.22,0-6.33c-7.17,2.2-14.34,4.6-21.51,7.01V311.74
		z M326.61,340.66c6.33-1.82,12.65-3.44,18.98-4.74c0-2.11,0-4.22,0-6.33c-4.01,0.82-8.01,1.78-12.02,2.83v-12.97
		c3.18-0.83,6.37-1.61,9.55-2.3v-6.33c-3.18,0.7-6.37,1.47-9.55,2.3v-12.34c4.01-1.05,8.01-2,12.02-2.83c0-2.11,0-4.22,0-6.33
		c-6.33,1.3-12.65,2.92-18.98,4.74V340.66z M374.58,327.25c0,2.15,0.06,3.73,0.76,5.37c-2.36,0-4.73,0.07-7.09,0.21
		c-0.38-1.12-0.63-1.8-0.63-5.4c0-2.32,0-4.64,0-6.96c0-4.1-1.39-5.56-4.56-5.27c-0.8,0.08-1.6,0.16-2.4,0.25
		c0,6.01,0,12.02,0,18.03c-2.32,0.26-4.64,0.58-6.96,0.95c0-14.76,0-29.52,0-44.29c3.5-0.56,7-1,10.5-1.31
		c7.22-0.6,10.31,2.89,10.31,9.68c0,1.16,0,2.32,0,3.48c0,4.56-1.46,7.51-4.55,9.1c3.48,1.32,4.62,4.7,4.62,9.31
		C374.58,322.7,374.58,324.98,374.58,327.25z M367.55,299.47c0-3.16-1.08-4.5-3.54-4.28c-1.12,0.1-2.23,0.21-3.35,0.34
		c0,4.53,0,9.07,0,13.6c0.91-0.1,1.81-0.2,2.72-0.28c2.59-0.24,4.18-1.46,4.18-5.01V299.47z M201,342.22
		c-2.55,0-4.62,2.07-4.62,4.62c0,2.55,2.07,4.62,4.62,4.62s4.62-2.07,4.62-4.62C205.63,344.29,203.56,342.22,201,342.22z
		 M391.38,301.7c-2.55,0-4.62,2.07-4.62,4.62c0,2.55,2.07,4.62,4.62,4.62s4.62-2.07,4.62-4.62
		C396.01,303.77,393.94,301.7,391.38,301.7z M247.08,268.86c-0.1-0.8-0.83-1.62-1.58-1.59c-1.58,0.09-2.53,1.04-2.57,2.82
		c-0.03,2.61-0.07,13.11-0.03,15.73c0,1.84,0.66,2.39,2.4,2.08c1.78-0.3,13.29-2.45,14.51-2.89c1.87-0.67,2.3-2.22,2.11-2.83
		c-0.26-0.83-0.95-1.46-2.37-1.26c-1.65,0.3-7.24,1.92-10.43,2.22c-1.84,0.18-1.81-0.45-1.81-2.39c-0.06-3.18-0.1-4.92-0.06-8.12
		C247.25,271.49,247.18,270.03,247.08,268.86z M275.32,263.65c0.95-0.6,1.51-1.46,0.95-2.44c-0.46-0.71-1.97-0.47-3.09-0.03
		c-0.73,0.31-4.31,1.23-5.43,1.59c-0.92,0.28-1.78,0.8-1.78,2.05c-0.06,1.46,0.63,1.24,1.68,1.06c1.74-0.27,1.77-0.29,1.74,1.53
		c-0.09,3.05,0,6.09-0.26,9.21c-0.13,1.58,0.26,2.61-1.74,3.43c-1.32,0.5-1.81,1.34-1.32,2.67c0.43,0.99,1.77,0.45,3.12,0.09
		c2.07-0.55,4.04-1.03,5.76-1.65c0.79-0.29,1.39-0.6,1.35-1.97c0.03-1.13-0.26-1.25-1.81-1.1c-0.82,0-1.12-0.03-1.09-0.79
		c0.03-0.5,0.26-7.96,0.3-11.16C273.74,264.6,273.74,264.6,275.32,263.65z M287.8,261.71c1.02-0.3,2.04-0.53,3.06-0.8
		c1.48-0.32,8.65-1.8,8.65-4.37c0-1.74-1.06-1.63-3.12-1.08c-3.23,0.66-5.39,1.43-9.05,2.31c-1.05,0.18-2.17,0.63-3.23,1.03
		c-1.28,0.53-2.07,1.55-2.24,2.84c-0.1,0.85-0.2,1.73-0.16,2.57c0.13,4.41,0.23,8.83-0.17,13.37c-0.17,1.85,1.15,2.41,2.89,1.37
		c0.82-0.51,1.28-1.18,1.45-2.12c0.29-1.89,0.23-3.68,0.23-5.52c0-1.88,0.07-2.02,1.91-2.4c2.57-0.5,4.93-1.32,7.66-2.44
		c0.82-0.32,2.21-0.81,2.11-2.53c-0.2-1.36-1.25-1.11-2.9-0.71c-2.34,0.69-4.14,1.36-6.45,1.93c-1.38,0.2-2.04,0.6-2.11-0.77
		c0-0.3-0.04-0.55,0-0.85C286.46,262.32,286.62,262.08,287.8,261.71z M307.23,273.02c1.28-0.44,3.29-0.89,4.57-1.2
		c3.12-0.71,2.93-0.92,6.05-1.62c0.82-0.22,3.16-0.77,3.91-1.3c0.95-0.65,1.51-1.12,0.95-2.82c-0.53-1.05-1.97-0.57-3.26-0.26
		c-3.19,0.81-5.16,1.58-8.32,2.36c-3.12,0.74-3.39,0.58-2.99-2.62c0.09-0.72,0.39-1.13,1.12-1.35c1.71-0.56,3.46-1.19,5.2-1.69
		c1.74-0.5,3-0.74,4.7-1.32c0.62-0.23,1.65-1.03,1.84-1.71c0.2-0.71,0.03-1.23-0.46-1.62c-0.82-0.77-1.51-0.49-3-0.06
		c-2.7,0.89-4.01,1.14-6.74,1.9c-0.73,0.3-2.51,0.87-2.6-0.42c0.07-0.84,0.13-1.16,0.17-1.95c0.07-1,0.59-1.44,1.48-1.65
		c3.13-0.81,6.28-1.66,9.41-2.42c0.76-0.2,1.52-0.37,2.2-0.88c1.12-0.86,1.35-2.43,0.43-3.01c-0.99-0.59-2.24,0.07-3.52,0.37
		c-3.72,0.96-7.4,2.25-11.12,2.72c-0.33,0.02-0.69,0.16-1.02,0.31c-1.35,0.63-2.07,1.74-2.07,3.12c0,2.53,0,5.1,0,7.63
		c0,2.5,0.07,4.98-0.03,7.51C304.04,273.59,305.35,273.7,307.23,273.02z M347.03,245.09c0.95-0.58,1.51-1.44,0.95-2.43
		c-0.46-0.72-1.97-0.5-3.09-0.06c-0.72,0.3-4.31,1.23-5.43,1.61c-0.93,0.29-1.78,0.83-1.78,2.08c-0.06,1.46,0.62,1.23,1.68,1.03
		c1.74-0.3,1.78-0.3,1.74,1.51c-0.1,3.05,0,6.09-0.26,9.21c-0.13,1.58,0.26,2.6-1.74,3.45c-1.31,0.52-1.81,1.37-1.32,2.69
		c0.43,0.98,1.78,0.41,3.13,0.05c2.07-0.57,4.05-1.04,5.76-1.64c0.79-0.28,1.38-0.58,1.35-1.96c0.03-1.12-0.26-1.26-1.81-1.12
		c-0.82-0.01-1.12-0.03-1.08-0.8c0.03-0.51,0.26-7.96,0.29-11.16C345.45,246.02,345.45,246.02,347.03,245.09z M361.91,255.82
		c-2.04,0.08-3.65-0.4-4.38-1.43c-0.56-0.8-1.08-0.89-2.07-0.84c-0.79,0.04-1.61,0.48-2.11,1.09c-0.43,0.52-0.59,1.08-0.49,1.65
		c0.17,0.98,0.79,1.5,1.35,1.91c2.37,1.62,5.14,2.08,8.39,1.43c0.82-0.17,1.68-0.4,2.6-0.71c2.93-1.02,5.3-2.7,7.24-5.14
		c2.18-2.71,1.81-5.74,0.2-7.11c-1.48-1.26-3.39-1.71-5.62-1.29c-0.03,0.01-0.1,0.02-0.13,0.02c-0.95,0.2-5.82,1.13-7.24,1.34
		c-0.52,0.08-1.22-0.01-1.35-0.9c-0.13-0.92,0.13-1.57,0.89-2.09c0.72-0.51,1.31-0.83,1.87-1.01c2.44-0.79,4.97-0.89,7.47-0.33
		c0.08,0.02,0.15,0.04,0.23,0.06c0.49,0.11,1.02,0.24,1.61,0.07c0.92-0.27,1.38-0.94,1.71-1.52c0.19-0.36,0.19-0.79,0.03-1.22
		c-0.2-0.46-0.79-1.28-2.63-1.44c-1.87-0.28-3.62-0.31-5.29-0.12c-2.79,0.32-5.39,1.35-7.76,3.11c-2.01,1.49-3,3.29-2.93,5.24
		c0.1,2.45,2.2,4.25,4.7,4.05c1.51-0.12,3.13-0.25,4.74-0.64c1.35-0.3,2.73-0.54,4.05-0.72c1.15-0.18,1.91,0.24,2.23,1.23
		c0.29,0.87-0.03,1.72-1.05,2.79C366.84,254.69,364.41,255.68,361.91,255.82z M413.86,240.1c-8.91,0.1-18.02,0.75-27.86,2
		c-1.22,0.16-2.08,1.27-1.92,2.49c0.14,1.12,1.1,1.94,2.2,1.94c0.09,0,0.19,0,0.28-0.02c9.66-1.23,18.61-1.88,27.35-1.97
		c1.23-0.01,2.21-1.02,2.19-2.24c-0.01-1.22-1-2.19-2.22-2.19H413.86z M228.69,277c-9.65,1.23-18.6,1.88-27.35,1.98
		c-1.23,0.01-2.21,1.02-2.19,2.24c0.01,1.22,1,2.19,2.22,2.19h0.02c8.93-0.1,18.04-0.75,27.86-2.01c1.22-0.16,2.08-1.27,1.92-2.49
		C231.02,277.71,229.9,276.84,228.69,277z M209.27,411.99c0.46,1.4,0.92,2.8,0.99,4.37c0.06,3.27-1.48,5.83-4.15,8.06
		c-2.43,1.99-5,2.85-7.8,3.06c-3.3,0.22-5.4-1.41-6.91-3.89c-0.99-1.64-1.55-3.5-1.41-5.43c-0.17-4.98,3.62-9.73,9.41-11.21
		C203.54,405.89,208.02,408.04,209.27,411.99z M206.05,415.52c-0.39-2.73-2.7-5.55-6.15-5c-3.03,0.52-4.81,1.93-5.37,4.62
		c-0.33,1.66-0.23,3.36,0.17,4.95c0.53,2.35,2.14,4.13,5.69,3.46c2.3-0.57,4.08-1.57,4.97-3.52
		C206.08,418.47,206.24,416.99,206.05,415.52z M218.07,424.09c1.15-0.38,1.48-1.96,1.45-2.91c-0.03-3.55,0.2-5.53,0.13-9.6
		c-0.03-0.22,0-0.62,0.33-0.72c0.39-0.21,1.54,1.21,1.77,1.4c2.6,2.39,4.18,3.88,6.78,6.23c0.85,0.78,1.94,1.85,2.93,2.43
		c0.99,0.69,2.83,0.34,3.35-0.89c0.26-0.51,0.46-1.48,0.56-2.55c0.06-1.53,0.03-2.48,0-3.72c-0.1-3.89-0.13-7.41-0.46-11.65
		c-0.13-0.8-0.16-1.58-0.92-1.68c-2.18-0.28-3.42,1.42-3.29,2.75c0.26,2.71,0.2,5.45,0.4,8.6c0.1,0.77,0.16,2.43-0.1,2.55
		c-0.33,0.13-1.48-0.91-2.04-1.46c-3.06-2.9-6.09-5.86-9.11-8.8c-0.36-0.33-0.66-0.63-1.22-0.59c-1.51,0.15-2.77,1.31-2.99,2.87
		c-0.2,1.29-0.3,2.52-0.3,3.77c0,4.01,0.1,8.04-0.1,12.13c-0.04,0.4,0,0.82,0.1,1.17C215.66,424.44,216.26,424.83,218.07,424.09z
		 M257.64,414.33c0.14,0.73,0.4,1.46,1.29,1.5c0.92,0,1.71-0.3,2.47-1.21c0.79-0.99,0.92-1.94,0.95-3
		c0.13-3.88-0.07-7.65,0.33-11.59c0.13-1.28,0.13-1.34,1.35-1.67c0.95-0.27,3.59-0.46,4.93-1.62c1.38-1.14,1.29-2.97,0.14-3.52
		c-0.79-0.36-2.21,0-3.09,0.22c-1.81,0.44-9.11,1.89-10.99,2.3c-1.38,0.32-2.73,0.25-3.98,1.21c-1.12,0.83-1.35,2.26-0.62,3.16
		c1.18,1.49,4.31,0.33,5.66,0.05c1.78-0.41,2-0.1,1.81,1.69C257.48,405.55,257.54,413.79,257.64,414.33z M290.16,403.3
		c0.03,1.54-0.07,3.07,0.17,4.57c0.2,1.09,0.62,1.36,1.68,1.2c1.94-0.33,2.99-1.6,2.77-3.77c-0.23-4.37-0.36-7.73-0.2-12.24
		c0.03-1.16,0.13-1.96,0.1-2.71c-0.06-1.11-0.56-2.43-2.63-2.05c-1.05,0.2-1.54,1.54-1.61,2.7c-0.03,1.69-0.33,3.35-0.26,4.99
		c0.03,1.44-0.86,1.7-2.2,2.03c-2.63,0.7-4.41,0.95-7.04,1.57c-1.15,0.26-1.65-0.1-1.45-1.39c0.16-2.14,0.13-2.76,0.33-4.71
		c0.26-1.92-0.23-2.78-1.97-2.4c-1.38,0.25-1.74,0.81-2.11,2.4c-0.1,0.41-0.56,5.44-0.69,7.51c-0.2,3.17-0.6,6.34-0.53,9.45
		c0.03,0.85,0.13,1.72,0.99,1.84c1.02,0.19,3.26-0.76,3.29-1.85c0.06-1.46,0.13-2.96,0.2-4.42c0.06-1.85,0.16-1.97,1.91-2.49
		c2.53-0.7,5.07-1.13,7.6-1.61C290,401.65,290.09,401.77,290.16,403.3z M302.88,407.08c1.28-0.32,3.29-0.55,4.57-0.72
		c3.12-0.36,2.93-0.6,6.05-0.93c0.82-0.12,3.16-0.39,3.91-0.82c0.95-0.53,1.52-0.93,0.95-2.7c-0.53-1.11-1.98-0.82-3.26-0.66
		c-3.19,0.43-5.17,0.97-8.33,1.41c-3.12,0.41-3.38,0.23-2.99-2.93c0.1-0.7,0.39-1.09,1.12-1.24c1.71-0.38,3.46-0.82,5.2-1.13
		c1.74-0.3,2.99-0.39,4.7-0.77c0.63-0.16,1.65-0.83,1.84-1.48c0.2-0.68,0.03-1.22-0.46-1.68c-0.82-0.87-1.52-0.68-3-0.42
		c-2.7,0.57-4.01,0.68-6.74,1.15c-0.72,0.22-2.5,0.61-2.6-0.69c0.07-0.83,0.13-1.14,0.17-1.94c0.07-1,0.59-1.38,1.48-1.49
		c3.13-0.48,6.28-0.97,9.41-1.36c0.76-0.11,1.51-0.18,2.2-0.61c1.12-0.71,1.35-2.26,0.43-2.95c-0.98-0.72-2.24-0.21-3.52-0.05
		c-3.72,0.51-7.4,1.39-11.12,1.49c-0.33-0.01-0.69,0.08-1.02,0.2c-1.35,0.5-2.07,1.54-2.07,2.92c0,2.53,0,5.1,0,7.63
		c0,2.5,0.07,4.99-0.03,7.51C299.68,407.33,301.01,407.56,302.88,407.08z M332.43,394.09c9.67-0.98,18.63-1.49,27.4-1.57
		c1.23-0.01,2.21-1.01,2.2-2.24c-0.01-1.22-1-2.2-2.22-2.2h-0.02c-8.91,0.08-18.01,0.59-27.81,1.59c-1.22,0.13-2.11,1.21-1.99,2.43
		c0.12,1.14,1.08,2,2.21,2C332.28,394.1,332.35,394.1,332.43,394.09z M147.31,423.27c8.9-0.08,18-0.59,27.81-1.58
		c1.22-0.12,2.11-1.21,1.99-2.43c-0.13-1.22-1.19-2.09-2.43-1.99c-9.68,0.98-18.64,1.49-27.4,1.56c-1.23,0.01-2.21,1.01-2.2,2.24
		c0.01,1.22,1,2.2,2.22,2.2H147.31z"/>
	<path class="st11" d="M335.37,133.48l-4.24-34.12l9.67-1.2l4.85,39.04C342.46,135.46,339,134.2,335.37,133.48z M329.07,176.87
		c4.08-0.51,6.98-4.23,6.47-8.31c-0.51-4.08-4.23-6.98-8.31-6.47c-4.08,0.51-6.98,4.23-6.47,8.31
		C321.27,174.48,324.99,177.38,329.07,176.87z M232.49,166.82c-0.85-6.86-7.11-11.73-13.97-10.88c-6.86,0.85-11.73,7.11-10.88,13.97
		s7.11,11.73,13.97,10.88C228.47,179.94,233.34,173.68,232.49,166.82z M191.92,80.41l5.31,42.74c3.32-1.68,6.86-3,10.58-3.92
		l-4.41-35.47l48.43-6.02l20.19,37.82l-36.59,4.55c18.23,5.82,32.37,21.77,34.88,42.01c0.42,3.4,0.5,6.76,0.25,10.05l20.86-2.59
		c-0.07-18.32,13.56-34.22,32.19-36.53c2.53-0.31,5.03-0.36,7.48-0.17l-3.02-24.29l-11.26,1.4l-3.43-27.6l-6.96,0.87l-1.83-14.73
		l-9.45-7.36l-4.05,5.2l7.3,5.68l1.5,12.02l-6.11,0.76l3.43,27.6l-18.3,2.27l-22.66-42.29l7.52-0.94l-1.08-8.66l-79.73,9.91
		l1.08,8.66L191.92,80.41z M144.9,227.42c0,0,25.54-6.64,62.86-14.74c-6.58-1.83-12.59-5.13-17.69-9.52
		c-3.15,0.52-6.3,1.01-9.44,1.53c-9.88,1.61-19.74,3.29-29.6,5.01c-0.26,0.05-0.51-0.13-0.56-0.39c-0.04-0.23,0.09-0.46,0.31-0.54
		l0.07-0.03c11.26-4.14,22.67-7.58,34.16-10.64c-5.61-6.6-9.43-14.83-10.58-24.06c-3.13-25.21,14.76-48.19,39.97-51.32
		s48.19,14.76,51.32,39.97c0.85,6.81,0.12,13.43-1.84,19.57c1.5-0.21,2.99-0.46,4.48-0.66c9.81-1.31,19.66-2.38,29.54-3.29
		c-0.46-1.6-0.84-3.23-1.05-4.93c-2.15-17.29,10.13-33.05,27.42-35.21c17.29-2.15,33.06,10.13,35.21,27.42
		c0.44,3.55,0.25,7.02-0.45,10.34c10.02,0.27,20.03,0.96,30.02,2.32l0.07,0.01c0.27,0.04,0.45,0.28,0.41,0.55
		c-0.03,0.24-0.23,0.41-0.46,0.42c-9.99,0.45-19.97,1.04-29.94,1.91c-0.57,0.05-1.15,0.1-1.72,0.14c-0.92,2.27-2.11,4.41-3.52,6.39
		c37.19-4.11,72.37-5.59,98.58-1.81c-146.71,18.63-286.38,58.31-286.38,58.31L144.9,227.42z M311.9,171.5
		c1.12,8.98,9.3,15.35,18.27,14.23c8.98-1.12,15.35-9.3,14.23-18.27c-1.12-8.98-9.3-15.35-18.27-14.23
		C317.15,154.35,310.78,162.53,311.9,171.5z M248.79,204.23c18.81-3.66,38.94-7.27,59.31-10.42c-2.34-1.93-4.41-4.2-6.12-6.74
		c-10.78,1.32-21.55,2.7-32.31,4.19c-3.54,0.47-7.07,0.99-10.61,1.47C256.32,197.11,252.84,200.98,248.79,204.23z M222.99,191.84
		c12.97-1.61,22.17-13.43,20.56-26.4c-1.61-12.97-13.43-22.17-26.4-20.56c-12.97,1.61-22.17,13.43-20.56,26.4
		C198.2,184.25,210.02,193.45,222.99,191.84z M388.18,202.27l-14.77,3.07c-9.82,2.18-19.55,4.67-29.3,7.09
		c-9.68,2.68-19.35,5.38-28.97,8.25c-9.56,3.09-19.18,5.96-28.62,9.42c-18.96,6.64-37.71,14-55.87,23.01l-0.06,0.03
		c-0.19,0.09-0.29,0.32-0.23,0.53c0.07,0.23,0.32,0.36,0.55,0.29c38.23-11.86,76.74-22.85,115.47-32.95
		c19.33-5.18,38.72-10.12,58.21-14.67c19.49-4.53,39.07-8.72,58.81-11.91c0.21-0.03,0.37-0.22,0.37-0.44c0-0.24-0.2-0.44-0.44-0.44
		h-0.06c-20.3,0.04-40.4,2.6-60.24,5.99C398.05,200.35,393.09,201.21,388.18,202.27z M163.66,549.99h15.76v-41.4h20.34v-14.32
		h-20.34v-30.22h25.93v-17.09l-41.68,2.76V549.99z M252.93,439.13l17.74,110.87h-15.9l-2.72-18.19h-19.34l-2.72,18.19h-14.47
		l17.14-107.09L252.93,439.13z M249.9,518.19l-7.59-50.71l-7.59,50.71H249.9z M333.84,537.82c0,4.87,0.14,8.45,1.72,12.18h-16.04
		c-0.86-2.58-1.43-4.15-1.43-12.32v-15.76c0-9.31-3.15-12.75-10.31-12.75h-5.44v40.82h-15.76V432.3l23.78-5.35
		c16.33-3.67,23.35,2.34,23.35,17.81v35.9c0,10.31-3.29,17.05-10.31,20.34c7.88,3.29,10.46,10.89,10.46,21.34V537.82z
		 M317.94,449.88c0-7.16-2.43-9.77-8.02-8.51l-7.59,1.71v51.77h6.16c5.87,0,9.45-2.58,9.45-10.6V449.88z M386.13,489.29
		l-12.34-75.69l-21.18,4.5v131.89h13.75V447.47l11.75,70.91H393l10.89-71.91v103.53h14.9V408.65l-20.75,1.73L386.13,489.29z"/>
</g>
</svg>
